# Blender v2.80 (sub 75) OBJ File: ''
# www.blender.org
mtllib map.mtl
o Cube.004
v -2.597467 -0.877501 18.446438
v -2.597467 -0.590297 18.446438
v -2.597467 -0.590296 10.200708
v -2.597467 -0.877500 10.200708
v 7.987381 -0.590296 10.200708
v 7.987381 -0.877500 10.200708
v 7.987381 -0.590297 18.446438
v 7.987381 -0.877501 18.446438
vt 0.041967 0.552632
vt 0.032252 0.552632
vt 0.032252 0.542918
vt 0.041967 0.542918
vt 0.032252 0.533203
vt 0.041967 0.533203
vt 0.032252 0.523489
vt 0.041967 0.523489
vt 0.032252 0.513774
vt 0.041967 0.513774
vt 0.051681 0.533203
vt 0.051681 0.523489
vt 0.022538 0.533203
vt 0.022538 0.523489
vn -1.0000 0.0000 0.0000
vn 0.0000 0.0000 -1.0000
vn 1.0000 0.0000 0.0000
vn 0.0000 0.0000 1.0000
vn 0.0000 -1.0000 -0.0000
vn 0.0000 1.0000 0.0000
usemtl ground
s 1
f 1/1/1 2/2/1 3/3/1 4/4/1
f 4/4/2 3/3/2 5/5/2 6/6/2
f 6/6/3 5/5/3 7/7/3 8/8/3
f 8/8/4 7/7/4 2/9/4 1/10/4
f 4/11/5 6/6/5 8/8/5 1/12/5
f 5/5/6 3/13/6 2/14/6 7/7/6
o Cube.000_Cube.012
v -2.597467 -0.877500 10.166783
v -2.597467 -0.590296 10.166783
v -2.597467 -0.590296 1.921054
v -2.597467 -0.877500 1.921054
v 7.987381 -0.590296 1.921054
v 7.987381 -0.877500 1.921054
v 7.987381 -0.590296 10.166783
v 7.987381 -0.877500 10.166783
vt 0.041967 0.552632
vt 0.032252 0.552632
vt 0.032252 0.542918
vt 0.041967 0.542918
vt 0.032252 0.533203
vt 0.041967 0.533203
vt 0.032252 0.523489
vt 0.041967 0.523489
vt 0.032252 0.513774
vt 0.041967 0.513774
vt 0.051681 0.533203
vt 0.051681 0.523489
vt 0.022538 0.533203
vt 0.022538 0.523489
vn -1.0000 0.0000 0.0000
vn 0.0000 0.0000 -1.0000
vn 1.0000 0.0000 0.0000
vn 0.0000 0.0000 1.0000
vn 0.0000 -1.0000 -0.0000
vn 0.0000 1.0000 0.0000
usemtl ground
s 1
f 9/15/7 10/16/7 11/17/7 12/18/7
f 12/18/8 11/17/8 13/19/8 14/20/8
f 14/20/9 13/19/9 15/21/9 16/22/9
f 16/22/10 15/21/10 10/23/10 9/24/10
f 12/25/11 14/20/11 16/22/11 9/26/11
f 13/19/12 11/27/12 10/28/12 15/21/12
o Cube.002_Cube.014
v 7.911950 -0.877500 10.166783
v 7.911950 -0.590296 10.166783
v 7.911950 -0.590296 1.921054
v 7.911950 -0.877500 1.921054
v 18.496799 -0.590296 1.921054
v 18.496799 -0.877500 1.921054
v 18.496799 -0.590296 10.166783
v 18.496799 -0.877500 10.166783
vt 0.041967 0.552632
vt 0.032252 0.552632
vt 0.032252 0.542918
vt 0.041967 0.542918
vt 0.032252 0.533203
vt 0.041967 0.533203
vt 0.032252 0.523489
vt 0.041967 0.523489
vt 0.032252 0.513774
vt 0.041967 0.513774
vt 0.051681 0.533203
vt 0.051681 0.523489
vt 0.022538 0.533203
vt 0.022538 0.523489
vn -1.0000 0.0000 0.0000
vn 0.0000 0.0000 -1.0000
vn 1.0000 0.0000 0.0000
vn 0.0000 0.0000 1.0000
vn 0.0000 -1.0000 -0.0000
vn 0.0000 1.0000 0.0000
usemtl ground
s 1
f 17/29/13 18/30/13 19/31/13 20/32/13
f 20/32/14 19/31/14 21/33/14 22/34/14
f 22/34/15 21/33/15 23/35/15 24/36/15
f 24/36/16 23/35/16 18/37/16 17/38/16
f 20/39/17 22/34/17 24/36/17 17/40/17
f 21/33/18 19/41/18 18/42/18 23/35/18
o Cube.001_Cube.013
v 7.911950 -0.877501 18.446438
v 7.911950 -0.590297 18.446438
v 7.911950 -0.590296 10.200708
v 7.911950 -0.877500 10.200708
v 18.496799 -0.590296 10.200708
v 18.496799 -0.877500 10.200708
v 18.496799 -0.590297 18.446438
v 18.496799 -0.877501 18.446438
vt 0.041967 0.552632
vt 0.032252 0.552632
vt 0.032252 0.542918
vt 0.041967 0.542918
vt 0.032252 0.533203
vt 0.041967 0.533203
vt 0.032252 0.523489
vt 0.041967 0.523489
vt 0.032252 0.513774
vt 0.041967 0.513774
vt 0.051681 0.533203
vt 0.051681 0.523489
vt 0.022538 0.533203
vt 0.022538 0.523489
vn -1.0000 0.0000 0.0000
vn 0.0000 0.0000 -1.0000
vn 1.0000 0.0000 0.0000
vn 0.0000 0.0000 1.0000
vn 0.0000 -1.0000 -0.0000
vn 0.0000 1.0000 0.0000
usemtl ground
s 1
f 25/43/19 26/44/19 27/45/19 28/46/19
f 28/46/20 27/45/20 29/47/20 30/48/20
f 30/48/21 29/47/21 31/49/21 32/50/21
f 32/50/22 31/49/22 26/51/22 25/52/22
f 28/53/23 30/48/23 32/50/23 25/54/23
f 29/47/24 27/55/24 26/56/24 31/49/24
o Cube.007_Cube.018
v -23.630142 -0.877500 10.166783
v -23.630142 -0.590296 10.166783
v -23.630142 -0.590296 1.921054
v -23.630142 -0.877500 1.921054
v -13.045293 -0.590296 1.921054
v -13.045293 -0.877500 1.921054
v -13.045293 -0.590296 10.166783
v -13.045293 -0.877500 10.166783
vt 0.041967 0.552632
vt 0.032252 0.552632
vt 0.032252 0.542918
vt 0.041967 0.542918
vt 0.032252 0.533203
vt 0.041967 0.533203
vt 0.032252 0.523489
vt 0.041967 0.523489
vt 0.032252 0.513774
vt 0.041967 0.513774
vt 0.051681 0.533203
vt 0.051681 0.523489
vt 0.022538 0.533203
vt 0.022538 0.523489
vn -1.0000 0.0000 0.0000
vn 0.0000 0.0000 -1.0000
vn 1.0000 0.0000 0.0000
vn 0.0000 0.0000 1.0000
vn 0.0000 -1.0000 -0.0000
vn 0.0000 1.0000 0.0000
usemtl ground
s 1
f 33/57/25 34/58/25 35/59/25 36/60/25
f 36/60/26 35/59/26 37/61/26 38/62/26
f 38/62/27 37/61/27 39/63/27 40/64/27
f 40/64/28 39/63/28 34/65/28 33/66/28
f 36/67/29 38/62/29 40/64/29 33/68/29
f 37/61/30 35/69/30 34/70/30 39/63/30
o Cube.006_Cube.017
v -13.120724 -0.877501 18.446438
v -13.120724 -0.590297 18.446438
v -13.120724 -0.590296 10.200708
v -13.120724 -0.877500 10.200708
v -2.535875 -0.590296 10.200708
v -2.535875 -0.877500 10.200708
v -2.535875 -0.590297 18.446438
v -2.535875 -0.877501 18.446438
vt 0.041967 0.552632
vt 0.032252 0.552632
vt 0.032252 0.542918
vt 0.041967 0.542918
vt 0.032252 0.533203
vt 0.041967 0.533203
vt 0.032252 0.523489
vt 0.041967 0.523489
vt 0.032252 0.513774
vt 0.041967 0.513774
vt 0.051681 0.533203
vt 0.051681 0.523489
vt 0.022538 0.533203
vt 0.022538 0.523489
vn -1.0000 0.0000 0.0000
vn 0.0000 0.0000 -1.0000
vn 1.0000 0.0000 0.0000
vn 0.0000 0.0000 1.0000
vn 0.0000 -1.0000 -0.0000
vn 0.0000 1.0000 0.0000
usemtl ground
s 1
f 41/71/31 42/72/31 43/73/31 44/74/31
f 44/74/32 43/73/32 45/75/32 46/76/32
f 46/76/33 45/75/33 47/77/33 48/78/33
f 48/78/34 47/77/34 42/79/34 41/80/34
f 44/81/35 46/76/35 48/78/35 41/82/35
f 45/75/36 43/83/36 42/84/36 47/77/36
o Cube.005_Cube.016
v -13.120724 -0.877500 10.166783
v -13.120724 -0.590296 10.166783
v -13.120724 -0.590296 1.921054
v -13.120724 -0.877500 1.921054
v -2.535875 -0.590296 1.921054
v -2.535875 -0.877500 1.921054
v -2.535875 -0.590296 10.166783
v -2.535875 -0.877500 10.166783
vt 0.041967 0.552632
vt 0.032252 0.552632
vt 0.032252 0.542918
vt 0.041967 0.542918
vt 0.032252 0.533203
vt 0.041967 0.533203
vt 0.032252 0.523489
vt 0.041967 0.523489
vt 0.032252 0.513774
vt 0.041967 0.513774
vt 0.051681 0.533203
vt 0.051681 0.523489
vt 0.022538 0.533203
vt 0.022538 0.523489
vn -1.0000 0.0000 0.0000
vn 0.0000 0.0000 -1.0000
vn 1.0000 0.0000 0.0000
vn 0.0000 0.0000 1.0000
vn 0.0000 -1.0000 -0.0000
vn 0.0000 1.0000 0.0000
usemtl ground
s 1
f 49/85/37 50/86/37 51/87/37 52/88/37
f 52/88/38 51/87/38 53/89/38 54/90/38
f 54/90/39 53/89/39 55/91/39 56/92/39
f 56/92/40 55/91/40 50/93/40 49/94/40
f 52/95/41 54/90/41 56/92/41 49/96/41
f 53/89/42 51/97/42 50/98/42 55/91/42
o Cube.003_Cube.015
v -23.630142 -0.877501 18.446438
v -23.630142 -0.590297 18.446438
v -23.630142 -0.590296 10.200708
v -23.630142 -0.877500 10.200708
v -13.045293 -0.590296 10.200708
v -13.045293 -0.877500 10.200708
v -13.045293 -0.590297 18.446438
v -13.045293 -0.877501 18.446438
vt 0.041967 0.552632
vt 0.032252 0.552632
vt 0.032252 0.542918
vt 0.041967 0.542918
vt 0.032252 0.533203
vt 0.041967 0.533203
vt 0.032252 0.523489
vt 0.041967 0.523489
vt 0.032252 0.513774
vt 0.041967 0.513774
vt 0.051681 0.533203
vt 0.051681 0.523489
vt 0.022538 0.533203
vt 0.022538 0.523489
vn -1.0000 0.0000 0.0000
vn 0.0000 0.0000 -1.0000
vn 1.0000 0.0000 0.0000
vn 0.0000 0.0000 1.0000
vn 0.0000 -1.0000 -0.0000
vn 0.0000 1.0000 0.0000
usemtl ground
s 1
f 57/99/43 58/100/43 59/101/43 60/102/43
f 60/102/44 59/101/44 61/103/44 62/104/44
f 62/104/45 61/103/45 63/105/45 64/106/45
f 64/106/46 63/105/46 58/107/46 57/108/46
f 60/109/47 62/104/47 64/106/47 57/110/47
f 61/103/48 59/111/48 58/112/48 63/105/48
o Cube.015_Cube.026
v -2.597467 -0.877500 -6.362763
v -2.597467 -0.590296 -6.362763
v -2.597467 -0.590295 -14.608492
v -2.597467 -0.877499 -14.608492
v 7.987381 -0.590295 -14.608492
v 7.987381 -0.877499 -14.608492
v 7.987381 -0.590296 -6.362763
v 7.987381 -0.877500 -6.362763
vt 0.041967 0.552632
vt 0.032252 0.552632
vt 0.032252 0.542918
vt 0.041967 0.542918
vt 0.032252 0.533203
vt 0.041967 0.533203
vt 0.032252 0.523489
vt 0.041967 0.523489
vt 0.032252 0.513774
vt 0.041967 0.513774
vt 0.051681 0.533203
vt 0.051681 0.523489
vt 0.022538 0.533203
vt 0.022538 0.523489
vn -1.0000 0.0000 0.0000
vn 0.0000 0.0000 -1.0000
vn 1.0000 0.0000 0.0000
vn 0.0000 0.0000 1.0000
vn 0.0000 -1.0000 -0.0000
vn 0.0000 1.0000 0.0000
usemtl ground
s 1
f 65/113/49 66/114/49 67/115/49 68/116/49
f 68/116/50 67/115/50 69/117/50 70/118/50
f 70/118/51 69/117/51 71/119/51 72/120/51
f 72/120/52 71/119/52 66/121/52 65/122/52
f 68/123/53 70/118/53 72/120/53 65/124/53
f 69/117/54 67/125/54 66/126/54 71/119/54
o Cube.014_Cube.025
v 7.911950 -0.877500 1.893372
v 7.911950 -0.590296 1.893372
v 7.911950 -0.590296 -6.352357
v 7.911950 -0.877500 -6.352357
v 18.496799 -0.590296 -6.352357
v 18.496799 -0.877500 -6.352357
v 18.496799 -0.590296 1.893372
v 18.496799 -0.877500 1.893372
vt 0.041967 0.552632
vt 0.032252 0.552632
vt 0.032252 0.542918
vt 0.041967 0.542918
vt 0.032252 0.533203
vt 0.041967 0.533203
vt 0.032252 0.523489
vt 0.041967 0.523489
vt 0.032252 0.513774
vt 0.041967 0.513774
vt 0.051681 0.533203
vt 0.051681 0.523489
vt 0.022538 0.533203
vt 0.022538 0.523489
vn -1.0000 0.0000 0.0000
vn 0.0000 0.0000 -1.0000
vn 1.0000 0.0000 0.0000
vn 0.0000 0.0000 1.0000
vn 0.0000 -1.0000 -0.0000
vn 0.0000 1.0000 0.0000
usemtl ground
s 1
f 73/127/55 74/128/55 75/129/55 76/130/55
f 76/130/56 75/129/56 77/131/56 78/132/56
f 78/132/57 77/131/57 79/133/57 80/134/57
f 80/134/58 79/133/58 74/135/58 73/136/58
f 76/137/59 78/132/59 80/134/59 73/138/59
f 77/131/60 75/139/60 74/140/60 79/133/60
o Cube.013_Cube.024
v 7.911950 -0.877500 -6.362763
v 7.911950 -0.590296 -6.362763
v 7.911950 -0.590295 -14.608492
v 7.911950 -0.877499 -14.608492
v 18.496799 -0.590295 -14.608492
v 18.496799 -0.877499 -14.608492
v 18.496799 -0.590296 -6.362763
v 18.496799 -0.877500 -6.362763
vt 0.041967 0.552632
vt 0.032252 0.552632
vt 0.032252 0.542918
vt 0.041967 0.542918
vt 0.032252 0.533203
vt 0.041967 0.533203
vt 0.032252 0.523489
vt 0.041967 0.523489
vt 0.032252 0.513774
vt 0.041967 0.513774
vt 0.051681 0.533203
vt 0.051681 0.523489
vt 0.022538 0.533203
vt 0.022538 0.523489
vn -1.0000 0.0000 0.0000
vn 0.0000 0.0000 -1.0000
vn 1.0000 0.0000 0.0000
vn 0.0000 0.0000 1.0000
vn 0.0000 -1.0000 -0.0000
vn 0.0000 1.0000 0.0000
usemtl ground
s 1
f 81/141/61 82/142/61 83/143/61 84/144/61
f 84/144/62 83/143/62 85/145/62 86/146/62
f 86/146/63 85/145/63 87/147/63 88/148/63
f 88/148/64 87/147/64 82/149/64 81/150/64
f 84/151/65 86/146/65 88/148/65 81/152/65
f 85/145/66 83/153/66 82/154/66 87/147/66
o Cube.012_Cube.023
v -23.630142 -0.877500 1.893372
v -23.630142 -0.590296 1.893372
v -23.630142 -0.590296 -6.352357
v -23.630142 -0.877500 -6.352357
v -13.045293 -0.590296 -6.352357
v -13.045293 -0.877500 -6.352357
v -13.045293 -0.590296 1.893372
v -13.045293 -0.877500 1.893372
vt 0.041967 0.552632
vt 0.032252 0.552632
vt 0.032252 0.542918
vt 0.041967 0.542918
vt 0.032252 0.533203
vt 0.041967 0.533203
vt 0.032252 0.523489
vt 0.041967 0.523489
vt 0.032252 0.513774
vt 0.041967 0.513774
vt 0.051681 0.533203
vt 0.051681 0.523489
vt 0.022538 0.533203
vt 0.022538 0.523489
vn -1.0000 0.0000 0.0000
vn 0.0000 0.0000 -1.0000
vn 1.0000 0.0000 0.0000
vn 0.0000 0.0000 1.0000
vn 0.0000 -1.0000 -0.0000
vn 0.0000 1.0000 0.0000
usemtl ground
s 1
f 89/155/67 90/156/67 91/157/67 92/158/67
f 92/158/68 91/157/68 93/159/68 94/160/68
f 94/160/69 93/159/69 95/161/69 96/162/69
f 96/162/70 95/161/70 90/163/70 89/164/70
f 92/165/71 94/160/71 96/162/71 89/166/71
f 93/159/72 91/167/72 90/168/72 95/161/72
o Cube.011_Cube.022
v -2.597467 -0.877500 1.893372
v -2.597467 -0.590296 1.893372
v -2.597467 -0.590296 -6.352357
v -2.597467 -0.877500 -6.352357
v 7.987381 -0.590296 -6.352357
v 7.987381 -0.877500 -6.352357
v 7.987381 -0.590296 1.893372
v 7.987381 -0.877500 1.893372
vt 0.041967 0.552632
vt 0.032252 0.552632
vt 0.032252 0.542918
vt 0.041967 0.542918
vt 0.032252 0.533203
vt 0.041967 0.533203
vt 0.032252 0.523489
vt 0.041967 0.523489
vt 0.032252 0.513774
vt 0.041967 0.513774
vt 0.051681 0.533203
vt 0.051681 0.523489
vt 0.022538 0.533203
vt 0.022538 0.523489
vn -1.0000 0.0000 0.0000
vn 0.0000 0.0000 -1.0000
vn 1.0000 0.0000 0.0000
vn 0.0000 0.0000 1.0000
vn 0.0000 -1.0000 -0.0000
vn 0.0000 1.0000 0.0000
usemtl ground
s 1
f 97/169/73 98/170/73 99/171/73 100/172/73
f 100/172/74 99/171/74 101/173/74 102/174/74
f 102/174/75 101/173/75 103/175/75 104/176/75
f 104/176/76 103/175/76 98/177/76 97/178/76
f 100/179/77 102/174/77 104/176/77 97/180/77
f 101/173/78 99/181/78 98/182/78 103/175/78
o Cube.010_Cube.021
v -13.120724 -0.877500 -6.362763
v -13.120724 -0.590296 -6.362763
v -13.120724 -0.590295 -14.608492
v -13.120724 -0.877499 -14.608492
v -2.535875 -0.590295 -14.608492
v -2.535875 -0.877499 -14.608492
v -2.535875 -0.590296 -6.362763
v -2.535875 -0.877500 -6.362763
vt 0.041967 0.552632
vt 0.032252 0.552632
vt 0.032252 0.542918
vt 0.041967 0.542918
vt 0.032252 0.533203
vt 0.041967 0.533203
vt 0.032252 0.523489
vt 0.041967 0.523489
vt 0.032252 0.513774
vt 0.041967 0.513774
vt 0.051681 0.533203
vt 0.051681 0.523489
vt 0.022538 0.533203
vt 0.022538 0.523489
vn -1.0000 0.0000 0.0000
vn 0.0000 0.0000 -1.0000
vn 1.0000 0.0000 0.0000
vn 0.0000 0.0000 1.0000
vn 0.0000 -1.0000 -0.0000
vn 0.0000 1.0000 0.0000
usemtl ground
s 1
f 105/183/79 106/184/79 107/185/79 108/186/79
f 108/186/80 107/185/80 109/187/80 110/188/80
f 110/188/81 109/187/81 111/189/81 112/190/81
f 112/190/82 111/189/82 106/191/82 105/192/82
f 108/193/83 110/188/83 112/190/83 105/194/83
f 109/187/84 107/195/84 106/196/84 111/189/84
o Cube.009_Cube.020
v -13.120724 -0.877500 1.893372
v -13.120724 -0.590296 1.893372
v -13.120724 -0.590296 -6.352357
v -13.120724 -0.877500 -6.352357
v -2.535875 -0.590296 -6.352357
v -2.535875 -0.877500 -6.352357
v -2.535875 -0.590296 1.893372
v -2.535875 -0.877500 1.893372
vt 0.041967 0.552632
vt 0.032252 0.552632
vt 0.032252 0.542918
vt 0.041967 0.542918
vt 0.032252 0.533203
vt 0.041967 0.533203
vt 0.032252 0.523489
vt 0.041967 0.523489
vt 0.032252 0.513774
vt 0.041967 0.513774
vt 0.051681 0.533203
vt 0.051681 0.523489
vt 0.022538 0.533203
vt 0.022538 0.523489
vn -1.0000 0.0000 0.0000
vn 0.0000 0.0000 -1.0000
vn 1.0000 0.0000 0.0000
vn 0.0000 0.0000 1.0000
vn 0.0000 -1.0000 -0.0000
vn 0.0000 1.0000 0.0000
usemtl ground
s 1
f 113/197/85 114/198/85 115/199/85 116/200/85
f 116/200/86 115/199/86 117/201/86 118/202/86
f 118/202/87 117/201/87 119/203/87 120/204/87
f 120/204/88 119/203/88 114/205/88 113/206/88
f 116/207/89 118/202/89 120/204/89 113/208/89
f 117/201/90 115/209/90 114/210/90 119/203/90
o Cube.008_Cube.019
v -23.630142 -0.877500 -6.362763
v -23.630142 -0.590296 -6.362763
v -23.630142 -0.590295 -14.608492
v -23.630142 -0.877499 -14.608492
v -13.045293 -0.590295 -14.608492
v -13.045293 -0.877499 -14.608492
v -13.045293 -0.590296 -6.362763
v -13.045293 -0.877500 -6.362763
vt 0.041967 0.552632
vt 0.032252 0.552632
vt 0.032252 0.542918
vt 0.041967 0.542918
vt 0.032252 0.533203
vt 0.041967 0.533203
vt 0.032252 0.523489
vt 0.041967 0.523489
vt 0.032252 0.513774
vt 0.041967 0.513774
vt 0.051681 0.533203
vt 0.051681 0.523489
vt 0.022538 0.533203
vt 0.022538 0.523489
vn -1.0000 0.0000 0.0000
vn 0.0000 0.0000 -1.0000
vn 1.0000 0.0000 0.0000
vn 0.0000 0.0000 1.0000
vn 0.0000 -1.0000 -0.0000
vn 0.0000 1.0000 0.0000
usemtl ground
s 1
f 121/211/91 122/212/91 123/213/91 124/214/91
f 124/214/92 123/213/92 125/215/92 126/216/92
f 126/216/93 125/215/93 127/217/93 128/218/93
f 128/218/94 127/217/94 122/219/94 121/220/94
f 124/221/95 126/216/95 128/218/95 121/222/95
f 125/215/96 123/223/96 122/224/96 127/217/96
o Cube_Cube.001
v -25.645367 -1.000000 18.585058
v -25.645367 1.000000 18.585058
v -25.645367 -1.000000 -14.707217
v -25.645367 1.000000 -14.707217
v -23.645367 -1.000000 18.585058
v -23.645367 1.000000 18.585058
v -23.645367 -1.000000 -14.707217
v -23.645367 1.000000 -14.707217
vt 0.961866 0.876759
vt 0.975634 0.876759
vt 0.975634 0.890528
vt 0.961866 0.890528
vt 0.975634 0.904297
vt 0.961866 0.904297
vt 0.975634 0.918066
vt 0.961866 0.918066
vt 0.975634 0.931834
vt 0.961866 0.931834
vt 0.948097 0.904297
vt 0.948097 0.918066
vt 0.989403 0.904297
vt 0.989403 0.918066
vn -1.0000 0.0000 0.0000
vn 0.0000 0.0000 -1.0000
vn 1.0000 0.0000 0.0000
vn 0.0000 0.0000 1.0000
vn 0.0000 -1.0000 0.0000
vn 0.0000 1.0000 0.0000
usemtl walls
s off
f 129/225/97 130/226/97 132/227/97 131/228/97
f 131/228/98 132/227/98 136/229/98 135/230/98
f 135/230/99 136/229/99 134/231/99 133/232/99
f 133/232/100 134/231/100 130/233/100 129/234/100
f 131/235/101 135/230/101 133/232/101 129/236/101
f 136/229/102 132/237/102 130/238/102 134/231/102
o Cube.001_Cube.002
v 18.563606 -1.000000 18.577024
v 18.563606 1.000000 18.577024
v 18.563606 -1.000000 -14.715249
v 18.563606 1.000000 -14.715249
v 20.563606 -1.000000 18.577024
v 20.563606 1.000000 18.577024
v 20.563606 -1.000000 -14.715249
v 20.563606 1.000000 -14.715249
vt 0.961866 0.876759
vt 0.975634 0.876759
vt 0.975634 0.890528
vt 0.961866 0.890528
vt 0.975634 0.904297
vt 0.961866 0.904297
vt 0.975634 0.918066
vt 0.961866 0.918066
vt 0.975634 0.931834
vt 0.961866 0.931834
vt 0.948097 0.904297
vt 0.948097 0.918066
vt 0.989403 0.904297
vt 0.989403 0.918066
vn -1.0000 0.0000 0.0000
vn 0.0000 0.0000 -1.0000
vn 1.0000 0.0000 0.0000
vn 0.0000 0.0000 1.0000
vn 0.0000 -1.0000 0.0000
vn 0.0000 1.0000 0.0000
usemtl walls
s off
f 137/239/103 138/240/103 140/241/103 139/242/103
f 139/242/104 140/241/104 144/243/104 143/244/104
f 143/244/105 144/243/105 142/245/105 141/246/105
f 141/246/106 142/245/106 138/247/106 137/248/106
f 139/249/107 143/244/107 141/246/107 137/250/107
f 144/243/108 140/251/108 138/252/108 142/245/108
o Cube.002_Cube.003
v 20.519539 -1.025881 20.367321
v 20.519539 0.974119 20.367321
v -25.495941 -1.025881 20.367325
v -25.495941 0.974119 20.367325
v 20.519539 -1.025881 18.367321
v 20.519539 0.974119 18.367321
v -25.495941 -1.025881 18.367325
v -25.495941 0.974119 18.367325
vt 0.961866 0.876759
vt 0.975634 0.876759
vt 0.975634 0.890528
vt 0.961866 0.890528
vt 0.975634 0.904297
vt 0.961866 0.904297
vt 0.975634 0.918066
vt 0.961866 0.918066
vt 0.975634 0.931834
vt 0.961866 0.931834
vt 0.948097 0.904297
vt 0.948097 0.918066
vt 0.989403 0.904297
vt 0.989403 0.918066
vn 0.0000 0.0000 1.0000
vn -1.0000 0.0000 0.0000
vn -0.0000 0.0000 -1.0000
vn 1.0000 0.0000 0.0000
vn 0.0000 -1.0000 0.0000
vn 0.0000 1.0000 0.0000
usemtl walls
s off
f 145/253/109 146/254/109 148/255/109 147/256/109
f 147/256/110 148/255/110 152/257/110 151/258/110
f 151/258/111 152/257/111 150/259/111 149/260/111
f 149/260/112 150/259/112 146/261/112 145/262/112
f 147/263/113 151/258/113 149/260/113 145/264/113
f 152/257/114 148/265/114 146/266/114 150/259/114
o Cube.003_Cube.005
v 20.519539 -1.025881 -14.655195
v 20.519539 0.974119 -14.655195
v -25.495941 -1.025881 -14.655193
v -25.495941 0.974119 -14.655193
v 20.519539 -1.025881 -16.655195
v 20.519539 0.974119 -16.655195
v -25.495941 -1.025881 -16.655193
v -25.495941 0.974119 -16.655193
vt 0.961866 0.876759
vt 0.975634 0.876759
vt 0.975634 0.890528
vt 0.961866 0.890528
vt 0.975634 0.904297
vt 0.961866 0.904297
vt 0.975634 0.918066
vt 0.961866 0.918066
vt 0.975634 0.931834
vt 0.961866 0.931834
vt 0.948097 0.904297
vt 0.948097 0.918066
vt 0.989403 0.904297
vt 0.989403 0.918066
vn 0.0000 0.0000 1.0000
vn -1.0000 0.0000 0.0000
vn -0.0000 0.0000 -1.0000
vn 1.0000 0.0000 0.0000
vn 0.0000 -1.0000 0.0000
vn 0.0000 1.0000 0.0000
usemtl walls
s off
f 153/267/115 154/268/115 156/269/115 155/270/115
f 155/270/116 156/269/116 160/271/116 159/272/116
f 159/272/117 160/271/117 158/273/117 157/274/117
f 157/274/118 158/273/118 154/275/118 153/276/118
f 155/277/119 159/272/119 157/274/119 153/278/119
f 160/271/120 156/279/120 154/280/120 158/273/120
